<?xml version="1.0" encoding="utf-8"?>
<!-- Generator: Adobe Illustrator 24.1.3, SVG Export Plug-In . SVG Version: 6.00 Build 0)  -->
<svg version="1.1" id="Layer_1" xmlns="http://www.w3.org/2000/svg" xmlns:xlink="http://www.w3.org/1999/xlink" x="0px" y="0px"
	 viewBox="0 0 16.65 21.16" style="enable-background:new 0 0 16.65 21.16;" xml:space="preserve">
<style type="text/css">
	.st0{fill:#039982;}
	.st1{fill:#FF7A66;}
	.st2{fill:#E51F00;}
	.st3{fill:#BF1A00;}
	.st4{fill:#FFFFFF;}
</style>
<rect x="1.51" class="st0" width="15.13" height="21.16"/>
<polygon class="st1" points="0,6.05 0,7.57 0,9.08 1.51,9.08 1.51,7.57 1.51,6.05 "/>
<polygon class="st2" points="3.03,6.05 1.51,6.05 1.51,7.57 1.51,9.08 3.03,9.08 4.54,9.08 4.54,7.57 4.54,6.05 "/>
<polygon class="st3" points="6.05,6.05 4.54,6.05 4.54,7.57 4.54,9.08 6.05,9.08 7.57,9.08 7.57,7.57 7.57,6.05 "/>
<polygon class="st4" points="12.11,3.03 10.59,3.03 10.59,3.03 9.08,3.03 7.57,3.03 7.57,3.03 6.05,3.03 4.54,3.03 4.54,4.54 
	4.54,6.05 6.05,6.05 7.57,6.05 7.57,6.05 9.08,6.05 10.59,6.05 10.59,6.05 12.11,6.05 13.62,6.05 13.62,4.54 13.62,3.03 "/>
<polygon class="st4" points="12.11,9.08 10.59,9.08 10.59,9.08 9.08,9.08 7.57,9.08 7.57,9.08 6.05,9.08 4.54,9.08 4.54,10.59 
	4.54,10.59 4.54,12.11 4.54,13.62 4.54,13.62 4.54,15.13 4.54,16.65 4.54,18.16 6.05,18.16 7.57,18.16 7.57,18.16 9.08,18.16 
	10.59,18.16 10.59,18.16 12.11,18.16 13.62,18.16 13.62,16.65 13.62,15.13 12.11,15.13 10.59,15.13 10.59,15.13 9.08,15.13 
	7.57,15.13 7.57,13.62 7.57,13.62 7.57,12.11 9.08,12.11 10.59,12.11 10.59,12.11 12.11,12.11 13.62,12.11 13.62,10.59 13.62,10.59 
	13.62,9.08 "/>
</svg>
